<svg width="1200" height="760" viewBox="0 0 1200 760" fill="none" xmlns="http://www.w3.org/2000/svg">
  <rect width="1200" height="760" rx="34" fill="#F7F8FF"/>
  <path d="M82 142C196 58 342 66 464 128C588 190 718 184 846 128C962 78 1070 96 1132 178V760H82V142Z" fill="#E9E7FF"/>
  <rect x="86" y="84" width="430" height="272" rx="24" fill="white" stroke="#E1E6F2"/>
  <rect x="126" y="130" width="118" height="15" rx="7.5" fill="#111A36"/>
  <rect x="126" y="164" width="220" height="10" rx="5" fill="#AAB4CC"/>
  <rect x="126" y="188" width="174" height="10" rx="5" fill="#DDE3F4"/>
  <rect x="126" y="238" width="88" height="36" rx="18" fill="#665CF6"/>
  <rect x="286" y="122" width="182" height="184" rx="22" fill="#111A36"/>
  <path d="M318 306V208C318 176 344 150 376 150C408 150 434 176 434 208V306H318Z" fill="#766DFF"/>
  <circle cx="376" cy="184" r="36" fill="#F2C5AE"/>
  <path d="M342 182C350 146 404 138 420 174C398 168 378 164 342 182Z" fill="#161B2E"/>
  <rect x="560" y="84" width="270" height="272" rx="24" fill="#111A36"/>
  <rect x="600" y="128" width="86" height="12" rx="6" fill="#BFC6FF"/>
  <rect x="600" y="160" width="176" height="10" rx="5" fill="#6D748E"/>
  <rect x="600" y="184" width="134" height="10" rx="5" fill="#444D68"/>
  <rect x="600" y="246" width="190" height="54" rx="18" fill="#202A47"/>
  <path d="M628 273H762" stroke="#34C989" stroke-width="12" stroke-linecap="round" stroke-dasharray="56 92"/>
  <rect x="872" y="84" width="242" height="272" rx="24" fill="white" stroke="#E1E6F2"/>
  <rect x="914" y="128" width="74" height="74" rx="22" fill="#ECFAF4"/>
  <rect x="914" y="226" width="148" height="12" rx="6" fill="#202A47"/>
  <rect x="914" y="254" width="120" height="10" rx="5" fill="#AAB4CC"/>
  <rect x="914" y="278" width="158" height="10" rx="5" fill="#DDE3F4"/>
  <path d="M944 168L970 142L996 168L970 194L944 168Z" fill="#34C989"/>
  <rect x="134" y="418" width="288" height="230" rx="24" fill="#111A36"/>
  <rect x="174" y="460" width="94" height="12" rx="6" fill="#BFC6FF"/>
  <path d="M178 596C204 548 230 574 254 536C282 492 310 608 342 538C362 494 374 514 394 478" stroke="#FFBE45" stroke-width="12" stroke-linecap="round"/>
  <rect x="174" y="614" width="174" height="10" rx="5" fill="#444D68"/>
  <rect x="474" y="418" width="250" height="230" rx="24" fill="white" stroke="#E1E6F2"/>
  <rect x="514" y="460" width="74" height="12" rx="6" fill="#202A47"/>
  <rect x="514" y="504" width="170" height="100" rx="18" fill="#F2EFFF"/>
  <rect x="536" y="530" width="66" height="9" rx="4.5" fill="#665CF6"/>
  <rect x="536" y="554" width="112" height="8" rx="4" fill="#B8BFFF"/>
  <rect x="774" y="418" width="292" height="230" rx="24" fill="white" stroke="#E1E6F2"/>
  <rect x="814" y="460" width="96" height="12" rx="6" fill="#202A47"/>
  <rect x="814" y="502" width="206" height="15" rx="7.5" fill="#E8ECF6"/>
  <rect x="814" y="538" width="168" height="15" rx="7.5" fill="#E8ECF6"/>
  <rect x="814" y="574" width="188" height="15" rx="7.5" fill="#E8ECF6"/>
  <rect x="1020" y="454" width="1" height="166" fill="#E8ECF6"/>
  <circle cx="1043" cy="505" r="16" fill="#665CF6"/>
  <circle cx="1043" cy="559" r="16" fill="#34C989"/>
  <circle cx="1043" cy="613" r="16" fill="#FFBE45"/>
</svg>
